<svg width="32.000000" height="32.000000" viewBox="0 0 32 32" fill="none" xmlns="http://www.w3.org/2000/svg" xmlns:xlink="http://www.w3.org/1999/xlink">
	<desc>
			Created with Pixso.
	</desc>
	<defs/>
	<path id="16+" d="M19.2194 17.04C19.2194 18.924 18.0554 20.1 16.0994 20.1C14.2274 20.1 12.9914 18.948 12.9914 16.188C12.9914 12.3 14.6114 10.86 17.0594 10.86C17.7794 10.86 18.2834 10.944 18.7274 11.112L18.7274 12.672C18.3074 12.504 17.7914 12.408 17.2874 12.408C15.5714 12.408 14.8034 13.308 14.7194 14.772L14.8394 14.772C15.1874 14.34 15.6674 14.016 16.5794 14.016C18.1874 14.016 19.2194 15.24 19.2194 17.04ZM11.66 19.98L9.896 19.98L9.896 12.816L8.144 13.548L8.144 11.94L10.496 10.956L11.66 10.956L11.66 19.98ZM25.5064 15.024L25.5064 16.428L23.5984 16.428L23.5984 18.576L22.1944 18.576L22.1944 16.428L20.2864 16.428L20.2864 15.024L22.1944 15.024L22.1944 13.032L23.5984 13.032L23.5984 15.024L25.5064 15.024ZM14.8034 17.052C14.7914 18.108 15.2714 18.648 16.0994 18.648C16.8914 18.648 17.4074 18.096 17.4074 17.04C17.4074 16.008 16.8674 15.468 16.0994 15.468C15.2834 15.468 14.8034 16.02 14.8034 17.052Z" fill="#FFFFFF" fill-opacity="1.000000" fill-rule="evenodd"/>
	<circle id="Ellipse 21" cx="16.000000" cy="16.000000" r="15.000000" stroke="#FFFFFF" stroke-opacity="1.000000" stroke-width="2.000000"/>
</svg>
