<svg width="80.000000" height="80.000000" viewBox="0 0 80 80" fill="none" xmlns="http://www.w3.org/2000/svg" xmlns:xlink="http://www.w3.org/1999/xlink">
	<desc>
			Created with Pixso.
	</desc>
	<defs/>
	<path id="2" d="M49.4345 49.44L49.4345 54.6L30.7945 54.6L30.7945 49.56C30.7945 49.56 36.4345 43.04 38.5145 40.72C40.9545 37.84 42.3145 35.52 42.3145 32.88C42.3145 30.68 41.3545 29.04 38.6345 29.04C37.7545 29.04 36.9145 29.2 36.1145 29.6L36.1145 33.48L31.1945 33.48L31.1945 25.96C33.1145 24.64 36.2745 23.88 39.7145 23.88C45.3145 23.88 48.3545 27.2 48.3545 32.32C48.3545 36.88 46.0345 40.12 42.5945 44C41.2345 45.48 39.3545 47.64 37.7945 49.44L49.4345 49.44Z" fill="#48CCFD" fill-opacity="1.000000" fill-rule="evenodd"/>
	<circle id="Ellipse 33" cx="40.000000" cy="40.000000" r="39.000000" stroke="#39404C" stroke-opacity="1.000000" stroke-width="2.000000"/>
</svg>
