<svg width="80.000000" height="80.000000" viewBox="0 0 80 80" fill="none" xmlns="http://www.w3.org/2000/svg" xmlns:xlink="http://www.w3.org/1999/xlink">
	<desc>
			Created with Pixso.
	</desc>
	<defs/>
	<path id="3" d="M50.0658 46.28C50.0658 51.64 46.8658 56 40.1058 56C35.7058 56 30.9458 53.76 30.8258 46.68L36.4658 46.68C36.5458 49.16 37.7858 50.84 40.0658 50.84C42.3058 50.84 44.0258 49.2 44.0258 46.36C44.0258 43.52 42.2658 42.08 39.3858 42.08C38.1458 42.08 36.9458 42.28 36.7458 42.32L36.7458 37.48C41.5058 37.2 42.7858 35.2 42.7858 33.12C42.7858 31 41.5058 29.96 39.3858 29.96C38.4658 29.96 37.5458 30.12 36.7858 30.44L36.7858 34.48L31.9058 34.48L31.9058 26.96C33.9058 25.76 36.9058 24.88 40.3458 24.88C45.7858 24.88 48.7858 27.84 48.7858 32.04C48.7858 35.8 46.3058 38.08 43.7458 38.88L43.7458 39.12C47.6258 39.56 50.0658 42.48 50.0658 46.28Z" fill="#48CCFD" fill-opacity="1.000000" fill-rule="evenodd"/>
	<circle id="Ellipse 33" cx="40.000000" cy="40.000000" r="39.000000" stroke="#39404C" stroke-opacity="1.000000" stroke-width="2.000000"/>
</svg>
