<svg width="140.000000" height="16.000000" viewBox="0 0 140 16" fill="none" xmlns="http://www.w3.org/2000/svg" xmlns:xlink="http://www.w3.org/1999/xlink">
	<desc>
			Created with Pixso.
	</desc>
	<defs>
		<clipPath id="clip538_756">
			<rect id="Logo 1" width="140.000000" height="16.000000" fill="white" fill-opacity="0"/>
		</clipPath>
	</defs>
	<rect id="Logo 1" width="140.000000" height="16.000000" fill="#FFFFFF" fill-opacity="0"/>
	<g clip-path="url(#clip538_756)">
		<path id="Vector" d="M15.2854 9.91016L10.8706 9.91016C10.8516 10.2699 10.7612 10.6218 10.6052 10.9451C10.4492 11.2682 10.2307 11.5559 9.96313 11.7908C9.69312 12.0276 9.37988 12.2072 9.04126 12.3192C8.70264 12.4312 8.3457 12.4733 7.99097 12.4431C5.87036 12.4431 4.68164 10.8604 4.68164 8.06531L4.68164 7.89539C4.68164 5.07825 5.93677 3.51758 7.93066 3.51758C8.26367 3.49048 8.59839 3.53394 8.91406 3.64514C9.22974 3.75635 9.51953 3.93286 9.76514 4.1637C10.26 4.63025 10.5352 5.28369 10.5278 5.96558L15.0935 5.96558C14.7253 1.87085 11.9338 0.00866699 7.91016 0.00866699C6.86572 -0.0438232 5.82202 0.124268 4.84448 0.502563C3.86694 0.880859 2.97656 1.46106 2.22925 2.20679C1.4873 2.94666 0.906006 3.83728 0.522949 4.8208C0.140137 5.80432 -0.0361328 6.85901 0.00610352 7.91638L0.00610352 8.08862C0.00610352 12.8369 2.66846 16 8.08032 16C12.0835 16 14.9836 13.9152 15.2854 9.91016ZM23.7905 15.7391L23.7905 9.63452L28.8762 9.63452L28.8762 15.7391L33.3081 15.7391L33.3081 0.246216L28.8762 0.246216L28.8762 6.16248L23.7893 6.16248L23.7893 0.246216L19.3311 0.246216L19.3311 15.7343L23.7905 15.7391ZM51.9595 9.39087L51.9595 0.246216L47.4795 0.246216L47.4795 9.19641C47.4795 11.5151 46.8892 12.5109 45.0559 12.5109C43.1731 12.5109 42.6313 11.45 42.6313 9.26038L42.6313 0.246216L38.2007 0.246216L38.2007 9.45483C38.1973 13.7896 40.6833 16 45.0571 16C49.321 16 51.9607 13.8966 51.9607 9.39087L51.9595 9.39087ZM67.135 15.7391L67.135 12.2942L61.291 12.2942L61.291 0.244995L56.8328 0.244995L56.8328 15.7343L67.135 15.7391ZM77.7688 3.84375L79.4585 9.80066L76.061 9.80066L77.7688 3.84375ZM70.2366 15.7404L74.3728 15.7404L75.1946 12.8591L80.324 12.8591L81.1458 15.7391L85.8418 15.7391L80.9297 0.254761L75.1946 0.254761L70.2366 15.7416L70.2366 15.7404ZM93.8218 15.7404L93.8218 9.2616L98.28 15.7404L103.408 15.7404L97.4448 7.44006L103.114 0.246216L98.478 0.246216L93.8242 6.37915L93.8242 0.246216L89.3684 0.246216L89.3684 15.7343L93.8206 15.7404L93.8218 15.7404ZM121.561 7.98401L121.561 7.81055C121.561 2.99817 118.084 0.029541 113.364 0.029541C112.305 -0.0355225 111.244 0.121338 110.247 0.490234C109.249 0.859253 108.337 1.4325 107.565 2.1748C106.799 2.91199 106.191 3.80359 105.781 4.79321C105.372 5.78271 105.168 6.84851 105.185 7.92249L105.185 8.09485C105.187 12.7484 108.302 16 113.302 16C118.296 16.0012 121.561 12.7509 121.561 7.98401ZM109.811 8.07019L109.811 7.89539C109.811 5.07825 111.173 3.49792 113.355 3.49792C115.536 3.49792 116.928 5.12256 116.928 7.87573L116.928 8.0481C116.941 10.8209 115.575 12.5109 113.388 12.5109C111.24 12.5109 109.81 10.8862 109.81 8.07019L109.811 8.07019ZM128.892 15.7404L133.925 15.7404L138.996 0.25354L134.842 0.25354L131.678 11.1238L128.541 0.25354L123.77 0.25354L128.892 15.7404Z" fill="#FFFFFF" fill-opacity="1.000000" fill-rule="nonzero"/>
	</g>
</svg>
