<svg width="25.000000" height="18.000000" viewBox="0 0 25 18" fill="none" xmlns="http://www.w3.org/2000/svg" xmlns:xlink="http://www.w3.org/1999/xlink">
	<desc>
			Created with Pixso.
	</desc>
	<defs/>
	<path id="Shape Copy" d="M25 1.89478C24.0801 2.49219 23.0918 2.73645 21.875 2.84216C23.1133 2.28394 23.9263 1.39343 23.9585 0C23.3184 0.853027 22.2207 1.2312 20.8335 1.89478C20.1167 0.551758 18.7837 0 17.7085 0C14.4761 0 12.1797 2.03442 12.5 4.73682C12.1797 4.90015 12.2246 5.24695 12.5 5.6842C8.0498 5.39001 4.27002 3.58093 2.0835 0.947388C1.29883 1.50281 1.0459 2.28333 1.0415 2.84216C1.0459 4.69275 1.95166 6.08362 3.125 6.63159C2.48682 6.87488 1.69629 6.67053 1.0415 6.63159C1.00439 8.58899 2.77246 10.4255 5.2085 10.421C4.68799 10.9468 4.23486 11.0026 4.1665 11.3684C3.43652 11.0026 3.11523 10.974 3.125 11.3684C3.45508 12.7261 5.34912 14.04 7.2915 14.2106C5.83838 15.2955 3.62646 16.0219 1.0415 16.1052C0.80957 16.0219 0.401367 16.0005 0 16.1052C2.27002 17.2477 4.96582 18 8.3335 18C17.2964 18 22.4556 11.0757 22.9165 4.73682C23.4429 3.84229 24.3125 3.04199 25 1.89478Z" fill="#FFFFFF" fill-opacity="1.000000" fill-rule="nonzero"/>
</svg>
