<svg width="40.000000" height="40.000000" viewBox="0 0 40 40" fill="none" xmlns="http://www.w3.org/2000/svg" xmlns:xlink="http://www.w3.org/1999/xlink">
	<desc>
			Created with Pixso.
	</desc>
	<defs>
		<clipPath id="clip538_764">
			<rect id="Icon/Social/VKontakte" width="40.000000" height="40.000000" fill="white" fill-opacity="0"/>
		</clipPath>
	</defs>
	<rect id="Icon/Social/VKontakte" width="40.000000" height="40.000000" fill="#FFFFFF" fill-opacity="0"/>
	<g clip-path="url(#clip538_764)">
		<path id="Vector" d="M29.4053 22.1748C28.9688 21.6149 29.0938 21.3657 29.4053 20.8651C29.4106 20.8594 33.0142 15.8011 33.3857 14.0857L33.3877 14.0846C33.5723 13.4595 33.3877 13 32.4956 13L29.5435 13C28.792 13 28.4453 13.3943 28.2598 13.8354C28.2598 13.8354 26.7568 17.4902 24.6304 19.8594C23.9443 20.5439 23.627 20.7634 23.2524 20.7634C23.0679 20.7634 22.7808 20.5439 22.7808 19.9188L22.7808 14.0846C22.7808 13.3348 22.5703 13 21.9482 13L17.3066 13C16.835 13 16.5552 13.3497 16.5552 13.6754C16.5552 14.3862 17.6182 14.5497 17.7285 16.5497L17.7285 20.8892C17.7285 21.84 17.5586 22.0149 17.1816 22.0149C16.1782 22.0149 13.7422 18.3451 12.2988 14.1451C12.0073 13.3303 11.7231 13.0011 10.9658 13.0011L8.0127 13.0011C7.16992 13.0011 7 13.3954 7 13.8365C7 14.616 8.00342 18.4915 11.6665 23.6115C14.1079 27.1063 17.5459 29 20.6738 29C22.5537 29 22.7832 28.5795 22.7832 27.856C22.7832 24.5166 22.6133 24.2012 23.5552 24.2012C23.9917 24.2012 24.7432 24.4205 26.498 26.1063C28.5039 28.1051 28.8335 29 29.9565 29L32.9087 29C33.75 29 34.1763 28.5795 33.9312 27.7498C33.3696 26.0045 29.5762 22.4149 29.4053 22.1748Z" fill="#FFFFFF" fill-opacity="1.000000" fill-rule="nonzero"/>
	</g>
</svg>
